<svg version="1.1" id="Layer_1" xmlns="http://www.w3.org/2000/svg" xmlns:xlink="http://www.w3.org/1999/xlink" x="0px" y="0px"
	 width="100%" viewBox="0 0 240 160" enable-background="new 0 0 240 160" xml:space="preserve">
<path fill="#000000" opacity="1.000000" stroke="none" 
	d="
M155.289429,35.049339 
	C167.395721,27.302959 181.166595,35.732826 183.690323,48.996021 
	C185.569717,58.873047 174.623917,70.009766 163.874680,69.011734 
	C154.654388,68.155663 149.537827,63.562439 146.756500,53.644493 
	C145.079346,47.663879 148.496948,40.009304 155.289429,35.049339 
M165.321747,60.592121 
	C166.819366,59.920609 168.371948,59.348625 169.803909,58.558174 
	C173.507095,56.513966 174.337738,53.115898 173.995621,49.218925 
	C173.686356,45.696182 171.696564,43.360981 168.526825,42.192226 
	C164.879745,40.847485 161.427475,41.121864 158.410400,44.051743 
	C152.320587,49.965534 155.153107,57.631725 165.321747,60.592121 
z"/>
<path fill="#000000" opacity="1.000000" stroke="none" 
	d="
M122.981461,101.262390 
	C127.460190,109.111359 127.093117,116.693649 122.147079,122.961609 
	C117.382202,128.999985 109.894661,131.278015 102.040390,129.078888 
	C95.806641,127.333496 89.267807,119.767227 89.095039,112.772209 
	C88.921913,105.762466 92.039574,99.887871 98.050362,95.928268 
	C103.832039,92.119606 109.881126,91.914612 115.996132,95.155128 
	C118.671539,96.572914 120.936417,98.522087 122.981461,101.262390 
M110.660339,120.513016 
	C115.991531,117.587990 118.014214,113.938087 116.826469,108.948318 
	C115.884949,104.992958 113.289505,102.684044 109.199432,102.271011 
	C103.234932,101.668671 98.447098,105.572304 98.314949,111.067650 
	C98.165565,117.279884 102.598656,120.962791 110.660339,120.513016 
z"/>
<path fill="#000000" opacity="1.000000" stroke="none" 
	d="
M112.046387,36.647354 
	C112.103508,47.716389 112.115089,58.353352 112.123566,68.990318 
	C112.124092,69.654991 112.113274,70.320229 112.085396,70.984261 
	C111.967171,73.799629 110.871376,76.066696 107.765320,75.987762 
	C104.684196,75.909470 103.684540,73.664261 103.690186,70.801315 
	C103.711830,59.831829 103.702721,48.862206 103.669830,37.892742 
	C103.662155,35.335320 104.367378,33.049080 107.027924,32.460968 
	C109.798149,31.848618 111.238907,33.763657 112.046387,36.647354 
z"/>
<path fill="#000000" opacity="1.000000" stroke="none" 
	d="
M169.168625,90.547287 
	C169.258286,101.311005 169.311646,111.632401 169.318588,121.953812 
	C169.319595,123.443512 169.268951,124.972588 168.938965,126.414017 
	C168.432755,128.625183 166.771835,129.924622 164.590698,129.787033 
	C162.379898,129.647552 160.883301,128.147095 160.871216,125.816727 
	C160.810013,113.997498 160.816391,102.177795 160.838867,90.358337 
	C160.843246,88.051270 162.169922,86.482376 164.346176,86.125969 
	C167.243088,85.651558 168.493332,87.611328 169.168625,90.547287 
z"/>
</svg>